<svg xmlns="http://www.w3.org/2000/svg" version="1.1" viewBox="-5.0 -10.0 110.0 135.0">
 <path d="m83.375 42.062c-0.59375-0.59375-1.25-1.125-1.9375-1.5938 0.375-1.4375 0.59375-2.9688 0.59375-4.5312 0-9.7812-7.9688-17.75-17.75-17.75h-36.281c-9.7812 0-17.75 7.9688-17.75 17.75 0 6.8125 3.875 12.75 9.5312 15.688-0.09375 0.59375-0.125 1.2188-0.125 1.8125 0 4.4375 1.7812 8.4375 4.7188 11.375 2.875 2.875 6.9062 4.6875 11.344 4.6875v10.625l16-10.625h20.281c8.875 0 16.062-7.1875 16.062-16.062 0-4.4375-1.8125-8.4375-4.6875-11.375zm-4.9688-3.375c-1.2812 6.625-7.125 11.625-14.125 11.625h-1.6875v9.1562l-13.812-9.1562h-20.781c-2.75 0-5.3125-0.78125-7.4688-2.125-4.1562-2.5-6.9062-7.0625-6.9062-12.25 0-7.9062 6.4375-14.375 14.375-14.375h36.281c7.9375 0 14.375 6.4688 14.375 14.375 0 0.9375-0.09375 1.8438-0.25 2.75z"/>
</svg>