<svg xmlns="http://www.w3.org/2000/svg" version="1.1" viewBox="-5.0 -10.0 110.0 135.0">
 <g fill-rule="evenodd">
  <path d="m74.398 38.109c-0.53125 0-0.96484-0.42969-0.96484-0.96484v-28.188h-46.871v28.188c0 0.53125-0.43359 0.96484-0.96484 0.96484s-0.96484-0.43359-0.96484-0.96484v-29.148c0-0.53125 0.42969-0.96484 0.96484-0.96484h48.797c0.53125 0 0.96484 0.43359 0.96484 0.96484v29.148c0 0.53125-0.42969 0.96484-0.96484 0.96484z"/>
  <path d="m31.707 19.156h36.586v-5.6602h-36.586zm37.551 1.9258h-38.512c-0.53516 0-0.96484-0.42969-0.96484-0.96484v-7.5898c0-0.53125 0.42969-0.96484 0.96484-0.96484h38.512c0.53125 0 0.96484 0.42969 0.96484 0.96484v7.5898c0 0.53125-0.43359 0.96484-0.96484 0.96484z"/>
  <path d="m68.355 27.004h-36.711c-0.53125 0-0.96484-0.42969-0.96484-0.96484 0-0.53125 0.43359-0.96484 0.96484-0.96484h36.711c0.53125 0 0.96484 0.43359 0.96484 0.96484s-0.43359 0.96484-0.96484 0.96484z"/>
  <path d="m68.355 32.555h-36.711c-0.53125 0-0.96484-0.42969-0.96484-0.96484 0-0.53125 0.43359-0.96094 0.96484-0.96094h36.711c0.53125 0 0.96484 0.42969 0.96484 0.96094 0 0.53516-0.43359 0.96484-0.96484 0.96484z"/>
  <path d="m20.637 38.109c-2.293 0-4.1562 1.8633-4.1562 4.1562v10.074c0 1.1289-0.31641 2.125-0.96484 3.0508l-7.1133 10.113c-0.42188 0.60547-0.61328 1.2031-0.61328 1.9414v21.043c0 1.4102 1.1484 2.5586 2.5586 2.5586h79.312c1.4102 0 2.5586-1.1484 2.5586-2.5586v-21.043c0-0.73828-0.19141-1.3359-0.61328-1.9414l-7.1133-10.113c-0.64844-0.92188-0.96484-1.9219-0.96484-3.0508v-10.074c0-2.2891-1.8633-4.1562-4.1562-4.1562h-13.43v6.5664c0 0.53125-0.43359 0.96484-0.96484 0.96484h-29.938c-0.53125 0-0.96484-0.43359-0.96484-0.96484v-6.5664zm69.02 54.859h-79.309c-2.4727 0-4.4844-2.0117-4.4844-4.4844v-21.043c0-1.1289 0.31641-2.125 0.96484-3.0469l7.1133-10.113c0.42188-0.60156 0.61328-1.1992 0.61328-1.9375v-10.074c0-3.3555 2.7266-6.082 6.082-6.082h14.395c0.53125 0 0.96484 0.43359 0.96484 0.96484v6.5664h28.008v-6.5664c0-0.53125 0.42969-0.96484 0.96484-0.96484h14.395c3.3555 0 6.082 2.7305 6.082 6.082v10.074c0 0.73828 0.19141 1.3359 0.61328 1.9414l7.1133 10.113c0.64844 0.92187 0.96484 1.918 0.96484 3.0469v21.043c0 2.4727-2.0117 4.4844-4.4844 4.4844z"/>
  <path d="m79.973 59.973c-0.36328 0-0.66016 0.29688-0.66016 0.66016 0 0.35547 0.30469 0.66016 0.66016 0.66016h2.8516c0.35547 0 0.66016-0.30469 0.66016-0.66016 0-0.36719-0.29688-0.66016-0.66016-0.66016zm2.8516 3.25h-2.8516c-1.4258 0-2.5898-1.1641-2.5898-2.5898 0-1.4258 1.1602-2.5859 2.5898-2.5859h2.8516c1.4258 0 2.5859 1.1602 2.5859 2.5898 0 1.4258-1.1641 2.5898-2.5859 2.5898z"/>
  <path d="m81.398 65.145c-0.53125 0-0.96484-0.42969-0.96484-0.96484v-1.9219c0-0.53516 0.42969-0.96484 0.96484-0.96484 0.53125 0 0.96484 0.42969 0.96484 0.96484v1.9219c0 0.53125-0.43359 0.96484-0.96484 0.96484z"/>
  <path d="m69.508 59.973c-0.36328 0-0.66016 0.29688-0.66016 0.66016 0 0.36328 0.29688 0.66016 0.66016 0.66016h2.8516c0.35547 0 0.66016-0.30469 0.66016-0.66016 0-0.36719-0.29688-0.66016-0.66016-0.66016zm2.8516 3.25h-2.8516c-1.4258 0-2.5898-1.1641-2.5898-2.5898 0-1.4258 1.1641-2.5859 2.5898-2.5859h2.8516c1.4258 0 2.5859 1.1602 2.5859 2.5898 0 1.4258-1.1602 2.5898-2.5859 2.5898z"/>
  <path d="m70.934 65.145c-0.53125 0-0.96484-0.42969-0.96484-0.96484v-1.9219c0-0.53516 0.42969-0.96484 0.96484-0.96484 0.53125 0 0.96484 0.42969 0.96484 0.96484v1.9219c0 0.53125-0.43359 0.96484-0.96484 0.96484z"/>
  <path d="m59.039 59.973c-0.36328 0-0.66016 0.29688-0.66016 0.66016 0 0.35547 0.30469 0.66016 0.66016 0.66016h2.8516c0.35547 0 0.66016-0.30469 0.66016-0.66016 0-0.35937-0.30469-0.66016-0.66016-0.66016zm2.8516 3.25h-2.8516c-1.4258 0-2.5898-1.1641-2.5898-2.5898 0-1.4258 1.1641-2.5859 2.5859-2.5859h2.8516c1.4258 0 2.5859 1.1602 2.5859 2.5898 0 1.4258-1.1602 2.5898-2.5859 2.5898z"/>
  <path d="m60.465 65.145c-0.53125 0-0.96484-0.42969-0.96484-0.96484v-1.9219c0-0.53516 0.43359-0.96484 0.96484-0.96484s0.96484 0.42969 0.96484 0.96484v1.9219c0 0.53125-0.43359 0.96484-0.96484 0.96484z"/>
  <path d="m48.574 59.973c-0.35938 0-0.66016 0.30078-0.66016 0.66016 0 0.35547 0.30078 0.66016 0.66016 0.66016h2.8477c0.35938 0 0.66016-0.30469 0.66016-0.66016 0-0.36719-0.29688-0.66016-0.66016-0.66016zm2.8477 3.25h-2.8477c-1.4258 0-2.5898-1.1641-2.5898-2.5898 0-1.4258 1.1602-2.5859 2.5898-2.5859h2.8477c1.4258 0 2.5898 1.1602 2.5898 2.5898 0 1.4258-1.1602 2.5898-2.5898 2.5898z"/>
  <path d="m50 65.145c-0.53516 0-0.96484-0.42969-0.96484-0.96484v-1.9219c0-0.53516 0.42969-0.96484 0.96484-0.96484 0.53125 0 0.96484 0.42969 0.96484 0.96484v1.9219c0 0.53125-0.43359 0.96484-0.96484 0.96484z"/>
  <path d="m38.109 59.973c-0.36328 0-0.66016 0.29688-0.66016 0.66016 0 0.35547 0.30469 0.66016 0.66016 0.66016h2.8516c0.35547 0 0.66016-0.30469 0.66016-0.66016 0-0.36719-0.29688-0.66016-0.66016-0.66016zm2.8516 3.25h-2.8516c-1.4258 0-2.5898-1.1641-2.5898-2.5898 0-1.4258 1.1602-2.5859 2.5898-2.5859h2.8516c1.4258 0 2.5859 1.1602 2.5859 2.5898 0 1.4258-1.1602 2.5898-2.5859 2.5898z"/>
  <path d="m39.535 65.145c-0.53125 0-0.96484-0.42969-0.96484-0.96484v-1.9219c0-0.53516 0.42969-0.96484 0.96484-0.96484 0.53125 0 0.96484 0.42969 0.96484 0.96484v1.9219c0 0.53125-0.43359 0.96484-0.96484 0.96484z"/>
  <path d="m27.645 59.973c-0.36328 0-0.66016 0.29688-0.66016 0.66016 0 0.35547 0.30469 0.66016 0.66016 0.66016h2.8516c0.35547 0 0.66016-0.30469 0.66016-0.66016 0-0.36719-0.29688-0.66016-0.66016-0.66016zm2.8516 3.25h-2.8516c-1.4258 0-2.5898-1.1641-2.5898-2.5898 0-1.4258 1.1602-2.5859 2.5898-2.5859h2.8516c1.4258 0 2.5859 1.1602 2.5859 2.5898 0 1.4258-1.1602 2.5898-2.5859 2.5898z"/>
  <path d="m29.07 65.145c-0.53125 0-0.96484-0.42969-0.96484-0.96484v-1.9219c0-0.53516 0.42969-0.96484 0.96484-0.96484 0.53125 0 0.96484 0.42969 0.96484 0.96484v1.9219c0 0.53125-0.43359 0.96484-0.96484 0.96484z"/>
  <path d="m17.176 59.973c-0.36328 0-0.66016 0.29688-0.66016 0.66016 0 0.35547 0.30469 0.66016 0.66016 0.66016h2.8516c0.35547 0 0.66016-0.30469 0.66016-0.66016 0-0.36719-0.29688-0.66016-0.66016-0.66016zm2.8516 3.25h-2.8516c-1.4258 0-2.5898-1.1641-2.5898-2.5898 0-1.4258 1.1641-2.5859 2.5859-2.5859h2.8516c1.4258 0 2.5859 1.1602 2.5859 2.5898 0 1.4258-1.1602 2.5898-2.5859 2.5898z"/>
  <path d="m18.602 65.145c-0.53125 0-0.96484-0.42969-0.96484-0.96484v-1.9219c0-0.53516 0.43359-0.96484 0.96484-0.96484s0.96484 0.42969 0.96484 0.96484v1.9219c0 0.53125-0.43359 0.96484-0.96484 0.96484z"/>
  <path d="m79.973 68.188c-0.35547 0-0.66016 0.30469-0.66016 0.66016 0 0.36328 0.29688 0.66016 0.66016 0.66016h2.8516c0.36328 0 0.66016-0.29687 0.66016-0.66016 0-0.36719-0.29688-0.66016-0.66016-0.66016zm2.8516 3.25h-2.8516c-1.4258 0-2.5898-1.1602-2.5898-2.5859 0-1.4258 1.1602-2.5898 2.5898-2.5898h2.8516c1.4258 0 2.5859 1.1602 2.5859 2.5898 0 1.4258-1.1641 2.5898-2.5859 2.5859z"/>
  <path d="m81.398 73.359c-0.53125 0-0.96484-0.42969-0.96484-0.96484v-1.9219c0-0.53125 0.42969-0.96484 0.96484-0.96484 0.53125 0 0.96484 0.43359 0.96484 0.96484v1.9219c0 0.53125-0.43359 0.96484-0.96484 0.96484z"/>
  <path d="m69.508 68.188c-0.36328 0-0.66016 0.29688-0.66016 0.66016 0 0.36328 0.29688 0.66016 0.66016 0.66016h2.8516c0.36328 0 0.66016-0.29687 0.66016-0.66016 0-0.36719-0.29688-0.66016-0.66016-0.66016zm2.8516 3.25h-2.8516c-1.4258 0-2.5898-1.1602-2.5898-2.5859 0-1.4258 1.1641-2.5898 2.5898-2.5898h2.8516c1.4258 0 2.5859 1.1602 2.5859 2.5898 0 1.4258-1.1602 2.5898-2.5859 2.5859z"/>
  <path d="m70.934 73.359c-0.53125 0-0.96484-0.42969-0.96484-0.96484v-1.9219c0-0.53125 0.42969-0.96484 0.96484-0.96484 0.53125 0 0.96484 0.43359 0.96484 0.96484v1.9219c0 0.53125-0.43359 0.96484-0.96484 0.96484z"/>
  <path d="m59.039 68.188c-0.35547 0-0.66016 0.30469-0.66016 0.66016 0 0.36328 0.29688 0.66016 0.66016 0.66016h2.8516c0.35547 0 0.66016-0.30469 0.66016-0.66016 0-0.35547-0.30469-0.66016-0.66016-0.66016zm2.8516 3.25h-2.8516c-1.4258 0-2.5898-1.1602-2.5898-2.5859 0-1.4258 1.1641-2.5898 2.5859-2.5898h2.8516c1.4258 0 2.5859 1.1602 2.5859 2.5898 0 1.4258-1.1602 2.5898-2.5859 2.5859z"/>
  <path d="m60.465 73.359c-0.53125 0-0.96484-0.42969-0.96484-0.96484v-1.9219c0-0.53125 0.43359-0.96484 0.96484-0.96484s0.96484 0.43359 0.96484 0.96484v1.9219c0 0.53125-0.43359 0.96484-0.96484 0.96484z"/>
  <path d="m48.574 68.188c-0.35938 0-0.66016 0.30469-0.66016 0.66016 0 0.36328 0.29688 0.66016 0.66016 0.66016h2.8477c0.36719 0 0.66016-0.29687 0.66016-0.66016 0-0.36719-0.29688-0.66016-0.66016-0.66016zm2.8477 3.25h-2.8477c-1.4258 0-2.5898-1.1602-2.5898-2.5859 0-1.4258 1.1602-2.5898 2.5898-2.5898h2.8477c1.4258 0 2.5898 1.1602 2.5898 2.5898 0 1.4258-1.1602 2.5898-2.5898 2.5859z"/>
  <path d="m50 73.359c-0.53516 0-0.96484-0.42969-0.96484-0.96484v-1.9219c0-0.53125 0.42969-0.96484 0.96484-0.96484 0.53125 0 0.96484 0.43359 0.96484 0.96484v1.9219c0 0.53125-0.43359 0.96484-0.96484 0.96484z"/>
  <path d="m38.109 68.188c-0.35547 0-0.66016 0.30469-0.66016 0.66016 0 0.36328 0.29688 0.66016 0.66016 0.66016h2.8516c0.36328 0 0.66016-0.29687 0.66016-0.66016 0-0.36719-0.29688-0.66016-0.66016-0.66016zm2.8516 3.25h-2.8516c-1.4258 0-2.5898-1.1602-2.5898-2.5859 0-1.4258 1.1602-2.5898 2.5898-2.5898h2.8516c1.4258 0 2.5859 1.1602 2.5859 2.5898 0 1.4258-1.1602 2.5898-2.5859 2.5859z"/>
  <path d="m39.535 73.359c-0.53125 0-0.96484-0.42969-0.96484-0.96484v-1.9219c0-0.53125 0.42969-0.96484 0.96484-0.96484 0.53125 0 0.96484 0.43359 0.96484 0.96484v1.9219c0 0.53125-0.43359 0.96484-0.96484 0.96484z"/>
  <path d="m27.645 68.188c-0.35547 0-0.66016 0.30469-0.66016 0.66016 0 0.36328 0.29688 0.66016 0.66016 0.66016h2.8516c0.36328 0 0.66016-0.29687 0.66016-0.66016 0-0.36719-0.29688-0.66016-0.66016-0.66016zm2.8516 3.25h-2.8516c-1.4258 0-2.5898-1.1602-2.5898-2.5859 0-1.4258 1.1602-2.5898 2.5898-2.5898h2.8516c1.4258 0 2.5859 1.1602 2.5859 2.5898 0 1.4258-1.1602 2.5898-2.5859 2.5859z"/>
  <path d="m29.07 73.359c-0.53125 0-0.96484-0.42969-0.96484-0.96484v-1.9219c0-0.53125 0.42969-0.96484 0.96484-0.96484 0.53125 0 0.96484 0.43359 0.96484 0.96484v1.9219c0 0.53125-0.43359 0.96484-0.96484 0.96484z"/>
  <path d="m17.176 68.188c-0.35547 0-0.66016 0.30469-0.66016 0.66016 0 0.36328 0.29688 0.66016 0.66016 0.66016h2.8516c0.36328 0 0.66016-0.29687 0.66016-0.66016 0-0.36719-0.29688-0.66016-0.66016-0.66016zm2.8516 3.25h-2.8516c-1.4258 0-2.5898-1.1602-2.5898-2.5859 0-1.4258 1.1641-2.5898 2.5859-2.5898h2.8516c1.4258 0 2.5859 1.1602 2.5859 2.5898 0 1.4258-1.1602 2.5898-2.5859 2.5859z"/>
  <path d="m18.602 73.359c-0.53125 0-0.96484-0.42969-0.96484-0.96484v-1.9219c0-0.53125 0.43359-0.96484 0.96484-0.96484s0.96484 0.43359 0.96484 0.96484v1.9219c0 0.53125-0.43359 0.96484-0.96484 0.96484z"/>
  <path d="m79.973 76.402c-0.36328 0-0.66016 0.29688-0.66016 0.66016s0.29688 0.66016 0.66016 0.66016h2.8516c0.35547 0 0.66016-0.30469 0.66016-0.66016 0-0.36328-0.29688-0.66016-0.66016-0.66016zm2.8516 3.25h-2.8516c-1.4258 0-2.5898-1.1602-2.5898-2.5898 0-1.4258 1.1602-2.5898 2.5898-2.5898h2.8516c1.4258 0 2.5859 1.1602 2.5859 2.5898 0 1.4258-1.1641 2.5898-2.5859 2.5898z"/>
  <path d="m81.398 81.57c-0.53125 0-0.96484-0.42969-0.96484-0.96484v-1.9219c0-0.53125 0.42969-0.96484 0.96484-0.96484 0.53125 0 0.96484 0.43359 0.96484 0.96484v1.9219c0 0.53125-0.43359 0.96484-0.96484 0.96484z"/>
  <path d="m69.508 76.402c-0.36328 0-0.66016 0.29688-0.66016 0.66016s0.29688 0.66016 0.66016 0.66016h2.8516c0.35547 0 0.66016-0.30469 0.66016-0.66016 0-0.36328-0.29688-0.66016-0.66016-0.66016zm2.8516 3.25h-2.8516c-1.4258 0-2.5898-1.1602-2.5898-2.5898 0-1.4258 1.1641-2.5898 2.5898-2.5898h2.8516c1.4258 0 2.5859 1.1602 2.5859 2.5898 0 1.4258-1.1602 2.5898-2.5859 2.5898z"/>
  <path d="m70.934 81.57c-0.53125 0-0.96484-0.42969-0.96484-0.96484v-1.9219c0-0.53125 0.42969-0.96484 0.96484-0.96484 0.53125 0 0.96484 0.43359 0.96484 0.96484v1.9219c0 0.53125-0.43359 0.96484-0.96484 0.96484z"/>
  <path d="m59.039 76.402c-0.36328 0-0.66016 0.29688-0.66016 0.66016s0.29688 0.66016 0.66016 0.66016h2.8516c0.35547 0 0.66016-0.30469 0.66016-0.66016 0-0.36328-0.29688-0.66016-0.66016-0.66016zm2.8516 3.25h-2.8516c-1.4258 0-2.5898-1.1602-2.5898-2.5898 0-1.4258 1.1641-2.5898 2.5859-2.5898h2.8516c1.4258 0 2.5859 1.1602 2.5859 2.5898 0 1.4258-1.1602 2.5898-2.5859 2.5898z"/>
  <path d="m60.465 81.57c-0.53125 0-0.96484-0.42969-0.96484-0.96484v-1.9219c0-0.53125 0.43359-0.96484 0.96484-0.96484s0.96484 0.43359 0.96484 0.96484v1.9219c0 0.53125-0.43359 0.96484-0.96484 0.96484z"/>
  <path d="m48.574 76.402c-0.35938 0-0.66016 0.30469-0.66016 0.66016s0.30078 0.66016 0.66016 0.66016h2.8477c0.35938 0 0.66016-0.30469 0.66016-0.66016 0-0.36328-0.29688-0.66016-0.66016-0.66016zm2.8477 3.25h-2.8477c-1.4258 0-2.5898-1.1602-2.5898-2.5898 0-1.4258 1.1602-2.5898 2.5898-2.5898h2.8477c1.4258 0 2.5898 1.1602 2.5898 2.5898 0 1.4258-1.1602 2.5898-2.5898 2.5898z"/>
  <path d="m50 81.57c-0.53516 0-0.96484-0.42969-0.96484-0.96484v-1.9219c0-0.53125 0.42969-0.96484 0.96484-0.96484 0.53125 0 0.96484 0.43359 0.96484 0.96484v1.9219c0 0.53125-0.43359 0.96484-0.96484 0.96484z"/>
  <path d="m38.109 76.402c-0.36328 0-0.66016 0.29688-0.66016 0.66016s0.29688 0.66016 0.66016 0.66016h2.8516c0.35547 0 0.66016-0.30469 0.66016-0.66016 0-0.36328-0.29688-0.66016-0.66016-0.66016zm2.8516 3.25h-2.8516c-1.4258 0-2.5898-1.1602-2.5898-2.5898 0-1.4258 1.1602-2.5898 2.5898-2.5898h2.8516c1.4258 0 2.5859 1.1602 2.5859 2.5898 0 1.4258-1.1602 2.5898-2.5859 2.5898z"/>
  <path d="m39.535 81.57c-0.53125 0-0.96484-0.42969-0.96484-0.96484v-1.9219c0-0.53125 0.42969-0.96484 0.96484-0.96484 0.53125 0 0.96484 0.43359 0.96484 0.96484v1.9219c0 0.53125-0.43359 0.96484-0.96484 0.96484z"/>
  <path d="m27.645 76.402c-0.36328 0-0.66016 0.29688-0.66016 0.66016s0.29688 0.66016 0.66016 0.66016h2.8516c0.35547 0 0.66016-0.30469 0.66016-0.66016 0-0.36328-0.29688-0.66016-0.66016-0.66016zm2.8516 3.25h-2.8516c-1.4258 0-2.5898-1.1602-2.5898-2.5898 0-1.4258 1.1602-2.5898 2.5898-2.5898h2.8516c1.4258 0 2.5859 1.1602 2.5859 2.5898 0 1.4258-1.1602 2.5898-2.5859 2.5898z"/>
  <path d="m29.07 81.57c-0.53125 0-0.96484-0.42969-0.96484-0.96484v-1.9219c0-0.53125 0.42969-0.96484 0.96484-0.96484 0.53125 0 0.96484 0.43359 0.96484 0.96484v1.9219c0 0.53125-0.43359 0.96484-0.96484 0.96484z"/>
  <path d="m17.176 76.402c-0.36328 0-0.66016 0.29688-0.66016 0.66016s0.29688 0.66016 0.66016 0.66016h2.8516c0.35547 0 0.66016-0.30469 0.66016-0.66016 0-0.36328-0.29688-0.66016-0.66016-0.66016zm2.8516 3.25h-2.8516c-1.4258 0-2.5898-1.1602-2.5898-2.5898 0-1.4258 1.1641-2.5898 2.5859-2.5898h2.8516c1.4258 0 2.5859 1.1602 2.5859 2.5898 0 1.4258-1.1602 2.5898-2.5859 2.5898z"/>
  <path d="m18.602 81.57c-0.53125 0-0.96484-0.42969-0.96484-0.96484v-1.9219c0-0.53125 0.43359-0.96484 0.96484-0.96484s0.96484 0.43359 0.96484 0.96484v1.9219c0 0.53125-0.43359 0.96484-0.96484 0.96484z"/>
  <path d="m34.562 85.215-0.011719 2.1719 30.891 0.011719 0.011719-2.1719-0.011719-0.011718zm30.879 4.1094h-30.879c-1.0703 0-1.9414-0.87109-1.9414-1.9375v-2.1602c0-1.0703 0.87109-1.9375 1.9375-1.9375h30.879c1.0664 0 1.9375 0.87109 1.9375 1.9414v2.1602c0 1.0703-0.87109 1.9414-1.9375 1.9375z"/>
  <path d="m79.812 38.129c-0.53125 0-0.96484-0.43359-0.96484-0.96484v-13.043h-4.4531c-0.53125 0-0.96484-0.42969-0.96484-0.96484 0-0.53125 0.43359-0.96484 0.96484-0.96484h5.4141c0.53125 0 0.96484 0.43359 0.96484 0.96484v14.004c0 0.53125-0.43359 0.96484-0.96484 0.96484z"/>
  <path d="m20.188 38.129c-0.53125 0-0.96484-0.43359-0.96484-0.96484v-14.004c0-0.53125 0.42969-0.96484 0.96484-0.96484h5.4141c0.53125 0 0.96484 0.43359 0.96484 0.96484s-0.42969 0.96484-0.96484 0.96484h-4.4492v13.043c0 0.53125-0.43359 0.96484-0.96484 0.96484z"/>
  <path d="m85.727 28.707h-5.9102c-0.53125 0-0.96484-0.42969-0.96484-0.96484 0-0.53125 0.43359-0.96484 0.96484-0.96484h5.9102c0.53125 0 0.96484 0.43359 0.96484 0.96484s-0.43359 0.96484-0.96484 0.96484zm0 4.8203h-5.9102c-0.53125 0-0.96484-0.42969-0.96484-0.96484 0-0.53125 0.43359-0.96484 0.96484-0.96484h5.9102c0.53125 0 0.96484 0.43359 0.96484 0.96484s-0.43359 0.96484-0.96484 0.96484z"/>
  <path d="m86.684 25.133v0.96484zm0.007812 0.96484v8.1094l3.8711-0.007812-0.003906-8.1094-3.8672 0.003906zm3.8711 10.031h-3.8789c-1.0586 0-1.9219-0.85938-1.9219-1.9219v-8.1133c0-1.0586 0.85938-1.9219 1.9219-1.9219h3.8789c1.0586 0 1.9219 0.86328 1.9219 1.9219v8.1133c0 1.0586-0.86328 1.9219-1.9219 1.9219z"/>
  <path d="m20.188 28.707h-5.9102c-0.53125 0-0.96484-0.42969-0.96484-0.96484 0-0.53125 0.43359-0.96484 0.96484-0.96484h5.9102c0.53125 0 0.96484 0.43359 0.96484 0.96484s-0.43359 0.96484-0.96484 0.96484zm0 4.8203h-5.9102c-0.53125 0-0.96484-0.42969-0.96484-0.96484 0-0.53125 0.43359-0.96484 0.96484-0.96484h5.9102c0.53125 0 0.96484 0.43359 0.96484 0.96484s-0.43359 0.96484-0.96484 0.96484z"/>
  <path d="m13.316 26.098zm-3.8789 0 0.003906 8.1094 3.875-0.007812-0.007812-8.1055h-3.8711zm3.8789 10.031h-3.8789c-1.0586 0-1.9219-0.85938-1.9219-1.9219v-8.1133c0-1.0586 0.86328-1.9219 1.9219-1.9219h3.8789c1.0586 0 1.9219 0.86328 1.9219 1.9219v8.1133c0 1.0586-0.86328 1.9219-1.9219 1.9219z"/>
 </g>
</svg>